<?xml version="1.0" encoding="UTF-8"?>
<svg id="_レイヤー_1" data-name="レイヤー 1" xmlns="http://www.w3.org/2000/svg" viewBox="0 0 953.01 894.78">
  <defs>
    <style>
      .cls-1 {
        fill: #fff;
      }
    </style>
  </defs>
  <path class="cls-1" d="M232.22,894.28c-34.77,0-60.39-5.13-80.64-16.13-39.51-21.48-71.89-56.05-96.26-102.76-19.92-38.19-34.67-84.76-43.82-138.42-7.34-43.01-14.8-113.58-8.72-205.53,2.9-43.85,7.29-110.12,27.33-177,23.85-79.58,64.74-142.02,121.54-185.57,37.18-28.52,77.24-46.61,126.06-56.94C325.13,1.88,375.9.5,423.71.5c17.26,0,34.77.2,53.3.41,145.55,1.67,310.51,3.57,406.31,119.72,33.25,40.31,53.86,89.19,63.01,149.45,8.08,53.2,6.48,108.16,4.93,161.3-2.96,101.61-6.32,216.77-84.13,304.29-28.83,32.43-70.63,55.37-135.54,74.37-60.71,17.77-136.7,31.44-254.65,51.85-116.05,20.08-189.96,32.39-244.71,32.39Z"/>
  <path d="M423.71,0v1c17.26,0,34.76.2,53.3.41,74.13.85,150.78,1.73,222.06,16.94,38.58,8.23,71.53,19.77,100.73,35.27,32.59,17.31,60.56,39.96,83.13,67.33,33.19,40.23,53.76,89.04,62.9,149.21,8.07,53.16,6.47,108.09,4.92,161.21-2.96,101.52-6.32,216.59-84,303.97-14.9,16.76-33.04,30.8-55.47,42.94-21.45,11.6-47.56,21.84-79.84,31.28-60.68,17.76-136.67,31.43-254.59,51.84-116.03,20.08-189.92,32.38-244.62,32.38-34.68,0-60.23-5.11-80.4-16.07-39.42-21.43-71.74-55.93-96.06-102.55-19.9-38.14-34.63-84.66-43.77-138.27-7.33-42.98-14.79-113.51-8.71-205.42,2.9-43.83,7.28-110.07,27.31-176.89,10.98-36.64,25.64-69.89,43.57-98.83,21.02-33.92,47.19-63.02,77.79-86.49,19.28-14.79,39.21-26.64,60.93-36.23,20.13-8.89,41.37-15.64,64.93-20.62C325.19,2.38,375.93,1,423.71,1V0M423.71,0c-105.74,0-193.07,7.66-272.36,68.46C19.62,169.49,8.2,341.99,2.29,431.4c-3.04,45.91-23.38,353.43,149.06,447.19,20.81,11.32,46.81,16.19,80.88,16.19,55.78,0,133.19-13.08,244.79-32.4,219.13-37.92,329.92-58.26,390.48-126.38,77.92-87.65,81.27-202.49,84.25-304.61,3.09-105.91,6.44-220.78-68.05-311.09C787.75,3.99,623.42,2.1,477.02.41,458.72.2,440.98,0,423.71,0h0Z"/>
</svg>